<svg width="17" height="16" viewBox="0 0 17 16" fill="none" xmlns="http://www.w3.org/2000/svg"><path d="M15.167 6v4c0 1.667-.334 2.833-1.08 3.587L9.833 9.333l5.154-5.153c.12.527.18 1.127.18 1.82" stroke="#A0AEC0" stroke-linecap="round" stroke-linejoin="round"/><path d="M14.987 4.18 4.68 14.487C2.673 14.027 1.833 12.64 1.833 10V6c0-3.333 1.334-4.667 4.667-4.667h4c2.64 0 4.027.84 4.487 2.847" stroke="#A0AEC0" stroke-linecap="round" stroke-linejoin="round"/><path d="M14.087 13.587c-.754.746-1.92 1.08-3.587 1.08h-4c-.693 0-1.293-.06-1.82-.18l5.153-5.154z" stroke="#A0AEC0" stroke-linecap="round" stroke-linejoin="round"/><path d="M4.66 5.32c.453-1.953 3.387-1.953 3.84 0 .26 1.147-.46 2.12-1.093 2.72a1.2 1.2 0 0 1-1.654 0c-.633-.6-1.36-1.573-1.093-2.72Z" stroke="#A0AEC0"/><path d="M6.563 5.8h.006" stroke="#A0AEC0" stroke-width="2" stroke-linecap="round" stroke-linejoin="round"/></svg>